<svg xmlns="http://www.w3.org/2000/svg" viewBox="0 0 33.08 29.19"><defs><style>.cls-1{fill:#fff;}</style></defs><g id="Capa_2" data-name="Capa 2"><g id="Capa_1-2" data-name="Capa 1"><path class="cls-1" d="M31.78,6.08A11.58,11.58,0,0,0,18.62.36,26.31,26.31,0,0,0,14.55.07,24,24,0,0,0,8,.93C2.76,2.48.48,6,.11,8.57c-.16,1-.23,2.2.45,2.74s1.51.28,2.44-.06a7,7,0,0,0,4.69,2.67l1.16.17h0c.3,0,.63.05,1,.06h.68a21.83,21.83,0,0,0,2.9,6.37c.3.48.66,1,1,1.45l1.35,1.74.1.13a57,57,0,0,0,4.54,4.88,1.76,1.76,0,0,0,2.38,0c1.49-1.41,2.71-2.65,3.62-3.68,0,0,.46-.51,1.14-1.33L28.92,22a26.37,26.37,0,0,0,3.18-5.65,13.36,13.36,0,0,0,1-4.13l0-1.3A12.3,12.3,0,0,0,31.78,6.08Zm-13.91,0a6,6,0,0,1,3.79-1.36,5.27,5.27,0,0,1,.57,0,1.59,1.59,0,1,0,2.09,1.5,1.55,1.55,0,0,0-.4-1c2.38,1.1,3.81,3.93,3.81,7.25,0,4.28-2.37,6.48-6.07,6.48-3.18,0-5.3-1.34-5.94-4.9,1.21-.15,1.3-.19,1.8-1.13a5,5,0,0,0,.55-3.15V9.72A7.45,7.45,0,0,1,17.87,6.1Zm-.25-3.94A10.15,10.15,0,0,0,16.18,5a5.18,5.18,0,0,0-.16.9c0,.24,0,.46,0,.68V7a14.32,14.32,0,0,0,.1,1.69l-.86-.15c-.36-.06-.73-.11-1.1-.15a28.5,28.5,0,0,0-3-.17h-.72A9.58,9.58,0,0,0,7.74,3,20.26,20.26,0,0,1,17.62,2.16ZM2.07,9.66h0a1.59,1.59,0,0,1-.35.19v0a8.47,8.47,0,0,1,4.1-5.95A7.28,7.28,0,0,1,8.45,8.32C6.4,8.38,3.18,8.87,2.07,9.66Zm9.41,2.78h-.41c-.56,0-1.11,0-1.48-.07H9.28l-1.06-.1A5,5,0,0,1,5,10.65a26.4,26.4,0,0,1,4-.52h.9s1.91,0,3.81.18c.36,0,.72.07,1,.12a10.8,10.8,0,0,1,1.73.37,1.38,1.38,0,0,1-.16.85,1.54,1.54,0,0,1-1.07.6,6.94,6.94,0,0,1-.83.11c-.33,0-.67.06-1,.07C12.66,12.45,11.93,12.45,11.48,12.44ZM30,16a25,25,0,0,1-3.56,5.8,46.65,46.65,0,0,1-4.82,5.27A44.18,44.18,0,0,1,18,23.26a31,31,0,0,1-4.29-6.32,16.81,16.81,0,0,1-1.08-2.76H13.7c.72,4.63,3.71,6.79,8,6.79,4.8,0,8.07-3.1,8.07-8.48s-3.27-9.75-8.07-9.75A7.7,7.7,0,0,0,19.5,3l.22-.34A2.06,2.06,0,0,0,20,2.15a7.82,7.82,0,0,1,2.7-.09A9.59,9.59,0,0,1,31,9.93,11.24,11.24,0,0,1,30,16Z"/></g></g></svg>