<svg xmlns="http://www.w3.org/2000/svg" viewBox="0 0 37.16 29.19"><defs><style>.cls-1{fill:#fff;}</style></defs><g id="Capa_2" data-name="Capa 2"><g id="Capa_1-2" data-name="Capa 1"><path class="cls-1" d="M37.15,18.25l0-.33c0-.1,0-.21,0-.32s0-.21-.06-.32,0-.21-.07-.32-.05-.21-.08-.31-.07-.2-.11-.31-.07-.2-.11-.3l-.14-.3-.14-.29-.16-.28L36,14.89l-.19-.26c-.06-.09-.13-.17-.2-.26a2.25,2.25,0,0,0-.21-.24l-.22-.24L35,13.67l-.24-.22-.26-.2-.27-.18-.27-.18-.28-.16-.29-.15-.19-.08V4.64a3.39,3.39,0,0,0,0-.45,3.25,3.25,0,0,0-.07-.45A3.69,3.69,0,0,0,33,3.29a3.52,3.52,0,0,0-.15-.42c-.06-.14-.13-.28-.2-.41a3.64,3.64,0,0,0-.23-.39l-.27-.37c-.1-.12-.2-.23-.31-.34s-.22-.21-.34-.3a3.07,3.07,0,0,0-.36-.27,4.11,4.11,0,0,0-.39-.24L30.31.36,29.88.2,29.44.09,29,0l-.46,0H8.62L8.17,0,7.72.09,7.28.2,6.85.36,6.44.55a2.55,2.55,0,0,0-.39.24,3.18,3.18,0,0,0-.37.27c-.12.09-.23.2-.34.3s-.21.22-.3.34a3.18,3.18,0,0,0-.27.37,2.55,2.55,0,0,0-.24.39c-.07.13-.13.27-.19.41s-.11.28-.16.42-.08.3-.11.45S4,4,4,4.19s0,.3,0,.45V12.5l-.18.08-.29.15-.28.16L3,13.07l-.26.18-.26.2-.25.22a2.39,2.39,0,0,0-.23.22l-.23.24-.21.24-.2.26-.19.26L1,15.17c-.06.09-.11.19-.16.28l-.15.29L.51,16l-.12.3-.1.31L.2,17c0,.11-.05.22-.07.32l-.06.32c0,.11,0,.22,0,.32s0,.22,0,.33,0,.22,0,.33v9.29a1.33,1.33,0,0,0,2.65,0v-.66s0-.05,0-.07a.13.13,0,0,1,0-.06s0,0,0-.07l0-.06a.14.14,0,0,1,0-.06l0-.05a.21.21,0,0,1,0-.06l0,0,0,0,.05,0,.06,0,.06,0,.06,0,.06,0H34l.07,0,.06,0,.06,0,.05,0,.06,0,.05,0,0,.05,0,.05,0,.05,0,.06a.14.14,0,0,1,0,.06s0,0,0,.07,0,0,0,.06v.73a1.33,1.33,0,0,0,2.66,0v-9.3C37.16,18.47,37.15,18.36,37.15,18.25ZM8,11.94a.49.49,0,0,1,0-.12.51.51,0,0,1,0-.13l0-.13s0-.08,0-.12l.06-.12a.41.41,0,0,1,.07-.11.76.76,0,0,1,.08-.11L8.35,11l.1-.09.1-.08.12-.07.11,0,.13-.05.12,0,.13,0h6.89l.13,0,.13,0,.12.05.12,0,.11.07.1.08.1.09.09.09.08.11.06.11.06.12a.56.56,0,0,1,0,.12.28.28,0,0,1,0,.13.51.51,0,0,1,0,.13.49.49,0,0,1,0,.12Zm11.94,0a.49.49,0,0,0,0-.12c0-.05,0-.09,0-.13l0-.13.05-.12a.61.61,0,0,1,0-.12l.07-.11a.76.76,0,0,1,.08-.11L20.3,11l.09-.09.11-.08.11-.07.12,0,.12-.05.13,0,.12,0H28l.13,0,.13,0,.12.05.12,0,.11.07.11.08.09.09.09.09.08.11.07.11.05.12.05.12,0,.13s0,.08,0,.13v.12ZM6.65,4.45a1.23,1.23,0,0,1,0-.19c0-.06,0-.13,0-.19a1.34,1.34,0,0,1,.07-.18,1.42,1.42,0,0,1,.08-.18L7,3.54l.12-.16.13-.14.15-.13L7.52,3l.17-.1.18-.08.18-.07.19-.05.19,0H28.72l.19,0,.19.05.19.07.17.08.17.1.16.12.15.13.13.14.11.16.1.17.09.18.06.18a1.33,1.33,0,0,1,.05.19l0,.19a1.28,1.28,0,0,1,0,.19V9a.74.74,0,0,0-.13-.12,3.55,3.55,0,0,0-.31-.23,3.87,3.87,0,0,0-.34-.21l-.35-.16A2.32,2.32,0,0,0,29,8.14L28.65,8,28.26,8l-.39,0H21.23l-.39,0L20.45,8l-.37.1a2.32,2.32,0,0,0-.37.13l-.36.16L19,8.64a3.55,3.55,0,0,0-.31.23.69.69,0,0,0-.13.11l-.13-.11-.32-.23a2.23,2.23,0,0,0-.33-.2,2.26,2.26,0,0,0-.35-.17,2.72,2.72,0,0,0-.37-.13L16.7,8c-.12,0-.25,0-.38-.06l-.4,0H9.29L8.9,8,8.51,8l-.38.1a3.3,3.3,0,0,0-.37.13l-.35.16-.33.21a3.55,3.55,0,0,0-.31.23A.74.74,0,0,0,6.64,9V4.65A1.34,1.34,0,0,1,6.65,4.45ZM34.49,24l-.32-.05H3L2.67,24h0V18.58c0-.06,0-.13,0-.19s0-.13,0-.2l0-.19,0-.2c0-.06,0-.12,0-.19a1.21,1.21,0,0,1,.05-.18l.06-.19L3,17.06,3,16.88l.09-.17.09-.17c0-.06.07-.12.11-.17l.11-.16.12-.15.13-.15.13-.14L4,15.63l.14-.13.16-.12.16-.11.16-.1.17-.1L4.94,15l.18-.08.18-.07.18-.06.19,0,.19,0,.19,0,.2,0,.19,0H30.71l.2,0,.19,0,.19,0,.19,0,.19,0,.19.06.18.07.18.08.17.09a1,1,0,0,1,.17.1l.17.1a.91.91,0,0,0,.16.11l.15.12.15.13.14.14a1.85,1.85,0,0,1,.14.14l.12.15.12.15.12.16.1.17.1.17.09.17.07.18.08.18.06.19c0,.06,0,.12.05.18a1.42,1.42,0,0,1,0,.2,1.06,1.06,0,0,1,0,.19c0,.06,0,.13,0,.19s0,.13,0,.2V24Z"/></g></g></svg>