<svg xmlns="http://www.w3.org/2000/svg" viewBox="0 0 29.38 29.19"><defs><style>.cls-1{fill:#fff;}</style></defs><g id="Capa_2" data-name="Capa 2"><g id="Capa_1-2" data-name="Capa 1"><path class="cls-1" d="M20.43,29.19a4.1,4.1,0,0,1-.49,0,6.77,6.77,0,0,1-2.65-1l-.15-.08c-.34-.18-.69-.37-1-.58A5.29,5.29,0,0,0,11.78,27c-1.28.34-2.34.59-3.34.79a5.52,5.52,0,0,1-2.58-.11,4.29,4.29,0,0,1-2.94-2.87A4.88,4.88,0,0,1,3.44,20a4.27,4.27,0,0,1,1.93-1.37l.79-.32.42-.16A2.58,2.58,0,0,0,7.94,17c.13-.22.25-.45.36-.68A12.56,12.56,0,0,1,9,15a7.72,7.72,0,0,1,6-3.51,4,4,0,0,1,3.72,1.9,15.84,15.84,0,0,1,.9,1.66l.27.53a8.86,8.86,0,0,1,.42,1,1.8,1.8,0,0,0,1.24,1.2A5.61,5.61,0,0,1,25.27,22a11.2,11.2,0,0,1,.25,1.34c0,.18.05.36.08.55l0,.08V24a5.5,5.5,0,0,1-1.83,3.89A5.07,5.07,0,0,1,20.43,29.19Zm-7-4.08a6.89,6.89,0,0,1,3.59,1c.3.19.62.36.95.54l.16.09a5.37,5.37,0,0,0,2,.76,3.39,3.39,0,0,0,2.58-.84,3.79,3.79,0,0,0,1.26-2.62c0-.16-.05-.33-.07-.5-.06-.4-.12-.78-.21-1.14a4,4,0,0,0-2.58-3.05,3.42,3.42,0,0,1-2.29-2.25,5.31,5.31,0,0,0-.33-.76c-.09-.19-.19-.37-.28-.56a12.89,12.89,0,0,0-.8-1.48,2.3,2.3,0,0,0-2.2-1.15A6.1,6.1,0,0,0,10.41,16a8.79,8.79,0,0,0-.62,1.1l-.4.74a4.27,4.27,0,0,1-2.2,1.9l-.42.17-.76.3A2.67,2.67,0,0,0,4.79,21a3.24,3.24,0,0,0-.31,3.26,2.7,2.7,0,0,0,1.83,1.83,3.81,3.81,0,0,0,1.8.09c1-.2,2-.44,3.24-.78A8.18,8.18,0,0,1,13.39,25.11Zm11.32-6.36h-.13a3.18,3.18,0,0,1-2.32-1.26,6.11,6.11,0,0,1-1.37-3.58v0A4.16,4.16,0,0,1,21.81,11a3.3,3.3,0,0,1-.84.42,4.49,4.49,0,0,1-3.44-.22,3.75,3.75,0,0,1-2.14-2.66,3.89,3.89,0,0,1-3.62,3.07A4,4,0,0,1,7.43,8.92,6.54,6.54,0,0,1,7,5.77,19.71,19.71,0,0,1,7.49,3,4.4,4.4,0,0,1,9,.78,3,3,0,0,1,12.79.63a5.29,5.29,0,0,1,1.74,2.06,10.18,10.18,0,0,1,.92,3.15A9.16,9.16,0,0,1,17,2.14,5.85,5.85,0,0,1,18.41.72a3,3,0,0,1,4.44.74,5.77,5.77,0,0,1,1.07,2.91c0,.32.06.64.08,1l0,.41v.06a8,8,0,0,1-.75,3.41,4.53,4.53,0,0,1-.49.83l1.14-.93.6-.48A2.26,2.26,0,0,1,25,8.36l0,0a2.62,2.62,0,0,1,3.66,1.1,5.14,5.14,0,0,1,.54,3.69A8.39,8.39,0,0,1,27,17.71,3.19,3.19,0,0,1,24.71,18.75Zm-2.15-4.91a4.4,4.4,0,0,0,1,2.58,1.65,1.65,0,0,0,1.11.66,1.65,1.65,0,0,0,1.14-.54,6.86,6.86,0,0,0,1.82-3.72,3.52,3.52,0,0,0-.34-2.55,1,1,0,0,0-1.49-.44l-.05,0-.16.08-.61.49c-.58.46-1.12.89-1.63,1.36A2.44,2.44,0,0,0,22.56,13.84ZM20.31,1.74a1.62,1.62,0,0,0-.93.34,4.13,4.13,0,0,0-1,1A7.83,7.83,0,0,0,17,7.39a2.2,2.2,0,0,0,1.3,2.28,2.83,2.83,0,0,0,2.15.15,2.34,2.34,0,0,0,1.36-1.3,6.31,6.31,0,0,0,.59-2.68l0-.39c0-.29,0-.59-.07-.89a4.12,4.12,0,0,0-.75-2.09A1.55,1.55,0,0,0,20.31,1.74Zm-9.37-.07A1.34,1.34,0,0,0,10,2,2.81,2.81,0,0,0,9.1,3.43,19.5,19.5,0,0,0,8.63,6,4.72,4.72,0,0,0,9,8.3a2.37,2.37,0,0,0,2.64,1.62A2.25,2.25,0,0,0,13.8,8c0-.21.06-.44.08-.63a.91.91,0,0,1,0-.17A9,9,0,0,0,13,3.42,3.62,3.62,0,0,0,11.83,2,1.57,1.57,0,0,0,10.94,1.67ZM4.62,18.19A3.27,3.27,0,0,1,2.21,17,8.79,8.79,0,0,1,0,12.08,5,5,0,0,1,.69,8.83,2.49,2.49,0,0,1,2.74,7.45a3.28,3.28,0,0,1,1.69.4,11.88,11.88,0,0,1,3.22,2.73,3.86,3.86,0,0,1,.83,2.51v0a6.14,6.14,0,0,1-1.36,3.76,3.29,3.29,0,0,1-2.43,1.31ZM2.8,9.12h0c-.1,0-.31,0-.66.57a3.33,3.33,0,0,0-.41,2.2,7,7,0,0,0,1.75,4,1.63,1.63,0,0,0,1.2.63,1.71,1.71,0,0,0,1.18-.71,4.47,4.47,0,0,0,1-2.74,2.14,2.14,0,0,0-.46-1.45A10.08,10.08,0,0,0,3.58,9.28,1.71,1.71,0,0,0,2.8,9.12Z"/><path class="cls-1" d="M20.43,29.19a4.1,4.1,0,0,1-.49,0,6.77,6.77,0,0,1-2.65-1l-.15-.08c-.34-.18-.69-.37-1-.58A5.29,5.29,0,0,0,11.78,27c-1.28.34-2.34.59-3.34.79a5.52,5.52,0,0,1-2.58-.11,4.29,4.29,0,0,1-2.94-2.87A4.88,4.88,0,0,1,3.44,20a4.27,4.27,0,0,1,1.93-1.37l.79-.32.42-.16A2.58,2.58,0,0,0,7.94,17c.13-.22.25-.45.36-.68A12.56,12.56,0,0,1,9,15a7.72,7.72,0,0,1,6-3.51,4,4,0,0,1,3.72,1.9,15.84,15.84,0,0,1,.9,1.66l.27.53a8.86,8.86,0,0,1,.42,1,1.8,1.8,0,0,0,1.24,1.2A5.61,5.61,0,0,1,25.27,22a11.2,11.2,0,0,1,.25,1.34c0,.18.05.36.08.55l0,.08V24a5.5,5.5,0,0,1-1.83,3.89A5.07,5.07,0,0,1,20.43,29.19Zm-7-4.08a6.89,6.89,0,0,1,3.59,1c.3.19.62.36.95.54l.16.09a5.37,5.37,0,0,0,2,.76,3.39,3.39,0,0,0,2.58-.84,3.79,3.79,0,0,0,1.26-2.62c0-.16-.05-.33-.07-.5-.06-.4-.12-.78-.21-1.14a4,4,0,0,0-2.58-3.05,3.42,3.42,0,0,1-2.29-2.25,5.31,5.31,0,0,0-.33-.76c-.09-.19-.19-.37-.28-.56a12.89,12.89,0,0,0-.8-1.48,2.3,2.3,0,0,0-2.2-1.15A6.1,6.1,0,0,0,10.41,16a8.79,8.79,0,0,0-.62,1.1l-.4.74a4.27,4.27,0,0,1-2.2,1.9l-.42.17-.76.3A2.67,2.67,0,0,0,4.79,21a3.24,3.24,0,0,0-.31,3.26,2.7,2.7,0,0,0,1.83,1.83,3.81,3.81,0,0,0,1.8.09c1-.2,2-.44,3.24-.78A8.18,8.18,0,0,1,13.39,25.11Z"/><path class="cls-1" d="M19.54,11.63a4.58,4.58,0,0,1-2-.46A3.83,3.83,0,0,1,15.3,7.35,9.34,9.34,0,0,1,17,2.14,5.85,5.85,0,0,1,18.41.72a3,3,0,0,1,4.44.74,5.77,5.77,0,0,1,1.07,2.91c0,.32.06.64.08,1l0,.41v.06a8,8,0,0,1-.75,3.41A4,4,0,0,1,21,11.39,4.29,4.29,0,0,1,19.54,11.63Zm.77-9.89a1.62,1.62,0,0,0-.93.34,4.13,4.13,0,0,0-1,1A7.83,7.83,0,0,0,17,7.39a2.2,2.2,0,0,0,1.3,2.28,2.83,2.83,0,0,0,2.15.15,2.34,2.34,0,0,0,1.36-1.3,6.31,6.31,0,0,0,.59-2.68l0-.39c0-.29,0-.59-.07-.89a4.12,4.12,0,0,0-.75-2.09A1.55,1.55,0,0,0,20.31,1.74Z"/><path class="cls-1" d="M11.29,11.6A4,4,0,0,1,7.43,8.92,6.54,6.54,0,0,1,7,5.77,19.71,19.71,0,0,1,7.49,3,4.4,4.4,0,0,1,9,.78,3,3,0,0,1,12.79.63a5.29,5.29,0,0,1,1.74,2.06,11.06,11.06,0,0,1,1,4.49v.11c0,.06,0,.12,0,.19a7.54,7.54,0,0,1-.1.82,3.91,3.91,0,0,1-3.67,3.28A3.85,3.85,0,0,1,11.29,11.6Zm-.35-9.93A1.34,1.34,0,0,0,10,2,2.81,2.81,0,0,0,9.1,3.43,19.5,19.5,0,0,0,8.63,6,4.72,4.72,0,0,0,9,8.3a2.37,2.37,0,0,0,2.64,1.62A2.25,2.25,0,0,0,13.8,8c0-.21.06-.44.08-.63a.91.91,0,0,1,0-.17A9,9,0,0,0,13,3.42,3.62,3.62,0,0,0,11.83,2,1.57,1.57,0,0,0,10.94,1.67Z"/><path class="cls-1" d="M4.62,18.19A3.27,3.27,0,0,1,2.21,17,8.79,8.79,0,0,1,0,12.08,5,5,0,0,1,.69,8.83,2.49,2.49,0,0,1,2.74,7.45a3.28,3.28,0,0,1,1.69.4,11.88,11.88,0,0,1,3.22,2.73,3.86,3.86,0,0,1,.83,2.51v0a6.14,6.14,0,0,1-1.36,3.76,3.29,3.29,0,0,1-2.43,1.31ZM2.8,9.12h0c-.1,0-.31,0-.66.57a3.33,3.33,0,0,0-.41,2.2,7,7,0,0,0,1.75,4,1.63,1.63,0,0,0,1.2.63,1.71,1.71,0,0,0,1.18-.71,4.47,4.47,0,0,0,1-2.74,2.14,2.14,0,0,0-.46-1.45A10.08,10.08,0,0,0,3.58,9.28,1.71,1.71,0,0,0,2.8,9.12Z"/><path class="cls-1" d="M24.71,18.75h-.13a3.18,3.18,0,0,1-2.32-1.26,6.11,6.11,0,0,1-1.37-3.58v0a4.07,4.07,0,0,1,1.32-3.32c.55-.51,1.15-1,1.72-1.44l.6-.48A2.26,2.26,0,0,1,25,8.36l0,0a2.62,2.62,0,0,1,3.66,1.1,5.14,5.14,0,0,1,.54,3.69A8.39,8.39,0,0,1,27,17.71,3.19,3.19,0,0,1,24.71,18.75Zm-2.15-4.91a4.4,4.4,0,0,0,1,2.58,1.65,1.65,0,0,0,1.11.66,1.65,1.65,0,0,0,1.14-.54,6.86,6.86,0,0,0,1.82-3.72,3.52,3.52,0,0,0-.34-2.55,1,1,0,0,0-1.49-.44l-.05,0-.16.08-.61.49c-.58.46-1.12.89-1.63,1.36A2.44,2.44,0,0,0,22.56,13.84Z"/></g></g></svg>