<svg xmlns="http://www.w3.org/2000/svg" viewBox="0 0 25.72 29.19"><defs><style>.cls-1{fill:#fff;}</style></defs><g id="Capa_2" data-name="Capa 2"><g id="Capa_1-2" data-name="Capa 1"><path class="cls-1" d="M1.93,5.81c-.37-.68-.71-1.38-1-2.09Z"/><path class="cls-1" d="M8.42,18.57s-.22.14,0-.32a20.3,20.3,0,0,0,1.16-4.12s.28-.19.41.95S8.42,18.57,8.42,18.57Z"/><path class="cls-1" d="M17.47,18.55s-1.77-2.3-1.68-3.44.36-1,.36-1a20.55,20.55,0,0,0,1.31,4.07C17.7,18.68,17.47,18.55,17.47,18.55Z"/><path class="cls-1" d="M16.59,12.06a2,2,0,1,0,3.24-2.13l-3.24,2.14Z"/><path class="cls-1" d="M9.6,12.06A2,2,0,1,1,6.37,9.93L9.6,12.07Z"/><path class="cls-1" d="M8.42,18.57s-.22.14,0-.32a20.3,20.3,0,0,0,1.16-4.12s.28-.19.41.95S8.42,18.57,8.42,18.57Z"/><path class="cls-1" d="M17.47,18.55s-1.77-2.3-1.68-3.44.36-1,.36-1a20.55,20.55,0,0,0,1.31,4.07C17.7,18.68,17.47,18.55,17.47,18.55Z"/><path class="cls-1" d="M9.47,8.71s-.59-.5.19-.92.81.56,1.75.83,1.27,1.1.95,1.56A2.22,2.22,0,0,1,9.83,10C9.7,9.72,9.93,8.77,9.47,8.71Z"/><path class="cls-1" d="M17.18,8.71s.59-.5-.19-.92-.81.56-1.75.83-1.27,1.1-1,1.56A2.22,2.22,0,0,0,16.82,10C17,9.72,16.72,8.77,17.18,8.71Z"/><path class="cls-1" d="M6.93,6.94s.26.6.67.49.75-.17.77-.7S9.21,5.16,8.53,5s-.74.22-1.57.55-1.23.12-1.46.62.25,1.3.8.93S6.93,6.94,6.93,6.94Z"/><path class="cls-1" d="M19.33,7.33s-.26.6-.67.49-.75-.17-.77-.71-.84-1.57-.16-1.76.74.21,1.57.54,1.23.12,1.46.63-.25,1.29-.8.92S19.33,7.33,19.33,7.33Z"/><path class="cls-1" d="M14.74,4.71a.92.92,0,0,1,.32.89c-.06.31-.27.59-.87.48C13,5.85,11.42,5.59,11.2,5s1.65-2.12,2.38-1.39C14,4.07,14.46,4.47,14.74,4.71Z"/><path class="cls-1" d="M21.17,15.27a.4.4,0,0,0-.65,0,.65.65,0,0,0-.1.76c.3.51,1.1-.16.82-.64Z"/><path class="cls-1" d="M20,19.83a1.72,1.72,0,0,0-.23,1.47c.31.64,1.73-.11,1.65-.76s-.11-.47-.49-.65A1.83,1.83,0,0,0,20,19.83Z"/><path class="cls-1" d="M19,14.69s-1.71.51-1.42,1,.76.47,1.24.1S19.24,14.79,19,14.69Z"/><path class="cls-1" d="M21.36,9.19s.18,1.36,1,1.73.76-.91.24-1.18S21.58,8.81,21.36,9.19Z"/><path class="cls-1" d="M23,14.77a.56.56,0,0,0-.5.43c-.14.49-.27,1.28.17,1.35.64.12,1.32-.24,1.32-.75s-.1-1.13-.67-1.07Z"/><path class="cls-1" d="M21.65,13.32s.48-.82.9-.76.79-.12.93.12.2.7-.29.79S22.06,13.78,21.65,13.32Z"/><path class="cls-1" d="M18.5,18.59s-.32-1.18-.05-1.26,1,.25.9.49S18.9,18.63,18.5,18.59Z"/><path class="cls-1" d="M21,18.05s0,.35.48.39,1-.18.8-.57-.15-.5-.45-.61-.56-.23-.64-.06A4.68,4.68,0,0,0,21,18.05Z"/><path class="cls-1" d="M4.67,15.27a.4.4,0,0,1,.65,0,.65.65,0,0,1,.1.76c-.3.51-1.1-.16-.82-.64Z"/><path class="cls-1" d="M5.85,19.83a1.72,1.72,0,0,1,.23,1.47c-.31.64-1.73-.11-1.66-.76s.12-.47.5-.65A1.83,1.83,0,0,1,5.85,19.83Z"/><path class="cls-1" d="M6.87,14.69s1.71.51,1.42,1-.76.47-1.24.1S6.6,14.79,6.87,14.69Z"/><path class="cls-1" d="M4.48,9.19s-.18,1.36-1,1.73S2.69,10,3.21,9.74,4.26,8.81,4.48,9.19Z"/><path class="cls-1" d="M2.86,14.77a.56.56,0,0,1,.5.43c.13.49.27,1.28-.17,1.35-.64.12-1.32-.24-1.32-.75s.1-1.13.67-1.07Z"/><path class="cls-1" d="M4.19,13.32s-.48-.82-.9-.76-.79-.12-.93.12-.2.7.29.79S3.78,13.78,4.19,13.32Z"/><path class="cls-1" d="M7.34,18.59s.32-1.18,0-1.26-1,.25-.9.49S6.94,18.63,7.34,18.59Z"/><path class="cls-1" d="M4.85,18.05s0,.35-.48.39-1-.18-.8-.57.15-.5.45-.61.56-.23.64-.06A4.68,4.68,0,0,1,4.85,18.05Z"/><path class="cls-1" d="M23.87,19.3l.09-.18.09-.2C24,19.05,23.93,19.18,23.87,19.3Zm-.09.19h0l0,0Zm-.09.18a1.17,1.17,0,0,1,0-.11l0,0A.61.61,0,0,0,23.69,19.67ZM.89,3.72c.33.71.67,1.41,1,2.09Zm.8,14.88c.08.19.17.38.26.57C1.85,19,1.76,18.77,1.69,18.6Z"/><path class="cls-1" d="M23.78,19.49h0l0,0Zm-.09.18-.07.12.12-.23,0,0A.61.61,0,0,0,23.69,19.67Z"/><path class="cls-1" d="M23.46,7.72C24,6.86,26.68,2.83,25.35.87S19.38.81,18,2.8a12,12,0,0,0-7-.94,12.75,12.75,0,0,0-3.14,1C6.54.83,1.68-1.17.32,1-.92,3,1.78,6.84,2.43,7.74A12.13,12.13,0,0,0,1.44,18h0a0,0,0,0,1,0,0l0,.12,0,.06a.43.43,0,0,1,0,0l0,.06.06.16,0,.07,0,.07c.07.17.16.36.26.57l.09.19.06.13.29.53c.22.38.44.76.67,1.14h0a10,10,0,0,0,3.65,3.49,3.32,3.32,0,0,0,1.92,1.7,2.87,2.87,0,0,0,.89,2,3,3,0,0,0,2.27.84c.58,0,2.61,0,2.61,0a3.16,3.16,0,0,0,2.11-1,2.49,2.49,0,0,0,.71-1.83,5.45,5.45,0,0,0,2.23-1.71c1.09-1.21,2.26-1.73,3.62-3.92l0,0,.32-.55.1-.18,0-.07.06-.12h0l.07-.12a.61.61,0,0,1,.07-.14s0,0,0,0l0,0,.06-.14.09-.18.09-.2h0l0-.06a12.18,12.18,0,0,0-.63-11.13Zm1.55-4c-.33.71-.67,1.41-1,2.09a11,11,0,0,1-.75,1.09L20.93,4.36A6.62,6.62,0,0,1,23.71,3a2.45,2.45,0,0,1,1,.06A.48.48,0,0,1,25,3.72ZM22,.94A5.74,5.74,0,0,1,23.7.62,1.42,1.42,0,0,1,25.27,2.2a6.17,6.17,0,0,0-.95-.2,4.93,4.93,0,0,0-2.88.89c-.46.28-.89.61-1.34.92l-1.42-.88A10.62,10.62,0,0,1,22,.94ZM2.19.62A5.75,5.75,0,0,1,3.88.94a10.62,10.62,0,0,1,3.34,2L5.8,3.81c-.45-.31-.88-.64-1.34-.92A4.93,4.93,0,0,0,1.58,2a6.17,6.17,0,0,0-.95.2A1.41,1.41,0,0,1,2.19.62ZM1.93,5.81c-.37-.68-.71-1.38-1-2.09A.48.48,0,0,1,1.22,3a2.45,2.45,0,0,1,1-.06A6.62,6.62,0,0,1,5,4.36L2.68,6.9A11,11,0,0,1,1.93,5.81ZM14.76,28a2.22,2.22,0,0,1-.51.06c-.88,0-1.77,0-2.65,0a1.84,1.84,0,0,1-1.8-1.42.62.62,0,0,1,0-.19A4.4,4.4,0,0,0,13,25.3a4.55,4.55,0,0,0,3.17,1.16A1.75,1.75,0,0,1,14.76,28Zm-2-5c-.16-.16-.32-.33-.49-.49-.42-.42-.85-.84-1.26-1.27h0l-.07-.06v0a.1.1,0,0,1,0-.05c0-.09-.09-.21-.06-.27h0a.38.38,0,0,1,.25-.11h3.81a.38.38,0,0,1,.25.11s0,0,0,0,0,.18-.06.27l0,0,0,0h0s-.05,0-.06.06h0c-.42.43-.84.85-1.27,1.27l-.49.49a.48.48,0,0,1-.15.11.23.23,0,0,1-.14,0H12.8l0,0ZM24,17s0,0,0,.05l0,.11q-.11.36-.24.72c-.11.3-.24.6-.37.9a11.36,11.36,0,0,1-3.22,4.14q-.32.24-.63.45h0c0-.11,0-.21,0-.32a8.7,8.7,0,0,0-.31-1.28c-.15-.46-.33-.93-.5-1.33a.21.21,0,0,0-.41.1c0,.39.09.86.17,1.37h0c0,.12.07.25.1.37a.43.43,0,0,1,0,.05,2.75,2.75,0,0,1-.46,2.08l-.07.09,0,.05-.08.09,0,0,0,0-.06.07a2.73,2.73,0,0,1-1.28.71,3,3,0,0,1-1.78-.11,1,1,0,0,1-.16-.06,4.89,4.89,0,0,1-.48-.2,1.39,1.39,0,0,1-.5-.52s-.05-.1-.07-.14a.76.76,0,0,1-.06-.2.09.09,0,0,1,0-.07c0-.11.11-.21.27-.36.64-.62,1.27-1.25,1.88-1.89a1.11,1.11,0,0,0,.3-.31,1,1,0,0,0,.16-.91.43.43,0,0,0,0-.05L16,20.48a.87.87,0,0,0-.16-.26h0a1,1,0,0,0-.81-.38H10.67l-.05,0h-.06l-.05,0L10.4,20l0,0,0,0-.06,0a.91.91,0,0,0-.17.17l0,0v0a1,1,0,0,0-.11.17,1,1,0,0,0-.08.21s0,0,0,.05a1,1,0,0,0,.16.91,1.11,1.11,0,0,0,.3.31c.61.64,1.24,1.27,1.88,1.89a.87.87,0,0,1,.28.36.17.17,0,0,1,0,.07,1.46,1.46,0,0,1-.05.2l-.08.14a1.26,1.26,0,0,1-.5.52,4.93,4.93,0,0,1-.53.22l-.11,0a3,3,0,0,1-1.78.11,2.78,2.78,0,0,1-1.28-.71h0A2.17,2.17,0,0,1,7.62,24l0-.12,0-.06h0a2.68,2.68,0,0,1-.19-1.59c.1-.66.17-1.29.2-1.79v-.06a.21.21,0,0,0-.39-.06l-.09.21h0a12.5,12.5,0,0,0-.63,2.29h0c0,.17,0,.34,0,.5q-.31-.21-.63-.45a11.36,11.36,0,0,1-3.22-4.14q-.19-.43-.36-.87T2,17.12l0-.11,0-.05a11.35,11.35,0,0,1-.4-3v-.15c0-.35,0-.69.07-1a11.51,11.51,0,0,1,4-7.61l.1-.09L5.74,5l.11-.09L6,4.82l.58-.42.14-.09.17-.1A.41.41,0,0,1,7,4.14L7.13,4,7.23,4l.18-.1.1-.06.11-.06.06,0,.12-.06.08,0L8,3.56l.05,0,.12-.06.09,0,.12,0,.1,0,.1,0,.09,0,.1,0,.13,0,.07,0,.16-.06L9.35,3,9.54,3l.05,0,.16-.05.16,0,.09,0,.2-.05.18,0,.19-.05.1,0,.12,0h.07l.15,0h0l.16,0h.15l.18,0,.15,0h2.53l.16,0,.18,0h.14l.17,0,.18,0,.19,0h.09l.19.05.19,0,.19.05.09,0,.16,0L16.3,3l.05,0a.6.6,0,0,1,.19.06l.2.06.17.06.06,0,.13,0,.1,0,.1,0,.09,0,.1,0,.12,0,.09,0,.11,0,.08,0,.11.05.09,0,.1.05.1,0,.08,0,.11.07.07,0,.13.07,0,0,.15.09h0l.17.1.16.1.14.09.08.06c.17.11.34.24.5.36l.11.09.11.09.1.08.11.09q.51.45,1,1a11.62,11.62,0,0,1,3,6.65c0,.35.06.69.06,1V14A11.35,11.35,0,0,1,24,17Z"/><path class="cls-1" d="M3.06,21.16a18.52,18.52,0,0,1-1-1.67l.29.53C2.61,20.4,2.83,20.78,3.06,21.16Z"/><path class="cls-1" d="M23.52,20c-.14.26-.28.51-.42.73l.32-.55Z"/></g></g></svg>