<svg xmlns="http://www.w3.org/2000/svg" viewBox="0 0 29.19 29.19"><defs><style>.cls-1{fill:#fff;}</style></defs><g id="Capa_2" data-name="Capa 2"><g id="Capa_1-2" data-name="Capa 1"><path class="cls-1" d="M23.33,28.71l-.32,0-.31,0-.31-.08-.3-.11-.29-.13-.27-.17a2.48,2.48,0,0,1-.26-.19,1.51,1.51,0,0,1-.23-.21h0l-5.47-5.56a4.94,4.94,0,0,1-.36-.44,3.4,3.4,0,0,1-.26-.5,2.69,2.69,0,0,1-.17-.55,3.43,3.43,0,0,1,0-.56V19.8a1.23,1.23,0,0,0,0-.19.64.64,0,0,0-.06-.18.56.56,0,0,0-.09-.17.76.76,0,0,0-.11-.14l-.69-.64-.1-.08-.1-.06-.11-.05-.12,0-.12,0H13l-.12,0a2.77,2.77,0,0,1-.5.1,4.35,4.35,0,0,1-1,0,4,4,0,0,1-.5-.11,3.86,3.86,0,0,1-.48-.16,4,4,0,0,1-.46-.23,3.07,3.07,0,0,1-.42-.28,3.17,3.17,0,0,1-.39-.34L3.88,12A11.3,11.3,0,0,1,.42,4.49,5.14,5.14,0,0,1,1.84.77a1,1,0,0,1,1.37,0L25.62,23.18a2.29,2.29,0,0,1,.21.23l.19.26c.06.09.12.18.17.27a2.55,2.55,0,0,1,.13.29c0,.1.08.2.11.3a2.81,2.81,0,0,1,.08.31c0,.1,0,.21,0,.31s0,.21,0,.32,0,.21,0,.32,0,.21,0,.31a2.81,2.81,0,0,1-.08.31c0,.1-.07.2-.11.3s-.08.19-.13.29-.11.18-.17.27a2.35,2.35,0,0,1-.19.25,1.64,1.64,0,0,1-.21.24,2.25,2.25,0,0,1-.24.21l-.25.19a2.61,2.61,0,0,1-.28.17l-.28.13-.3.11-.31.08-.31,0Zm-.91-2.32a.73.73,0,0,0,.09.08l.1.07a.41.41,0,0,0,.11.07l.11.05.12.05.13,0,.12,0h.25l.13,0,.12,0,.12-.05.12-.05.11-.07.1-.07.09-.09.09-.09.07-.1.07-.11a.61.61,0,0,0,.05-.12s0-.08.05-.12l0-.12s0-.08,0-.12v-.26s0-.08,0-.12l0-.13L24.52,25a.54.54,0,0,0-.05-.11l-.07-.11a.86.86,0,0,0-.07-.1l-.09-.1L2.66,3A3.83,3.83,0,0,0,2.37,4.5a9.47,9.47,0,0,0,2.88,6.16l5.2,5.2.19.17a1.64,1.64,0,0,0,.22.14l.23.11.24.09.25.05.26,0,.25,0,.26-.05.36-.07.36,0a2.17,2.17,0,0,1,.36,0,2.25,2.25,0,0,1,.36.06l.35.11a3.36,3.36,0,0,1,.33.16,2,2,0,0,1,.31.19l.29.23.7.65,0,0a2.56,2.56,0,0,1,.36.44,3.15,3.15,0,0,1,.28.51,3.2,3.2,0,0,1,.17.55,2.75,2.75,0,0,1,.05.57v.34a1.37,1.37,0,0,0,0,.19,1.27,1.27,0,0,0,.06.18.51.51,0,0,0,.09.16.58.58,0,0,0,.11.15Z"/><path class="cls-1" d="M3.41,29.19H3.07l-.33-.05-.32-.08-.32-.12-.3-.14-.29-.17-.27-.2L1,28.2.77,28l-.2-.27a2.75,2.75,0,0,1-.17-.29,2.75,2.75,0,0,1-.14-.3c0-.1-.08-.21-.11-.31a2,2,0,0,1-.08-.33,1.88,1.88,0,0,1,0-.33c0-.11,0-.22,0-.33s0-.23,0-.34a1.88,1.88,0,0,1,.05-.33,1.87,1.87,0,0,1,.08-.32c0-.11.07-.21.11-.32s.09-.2.14-.3l.17-.28a3.16,3.16,0,0,1,.2-.27A2.73,2.73,0,0,1,1,23.38l5.13-5.09a1,1,0,0,1,1.37,0,1,1,0,0,1,0,1.38L2.37,24.76l-.09.1L2.19,25l-.07.12-.06.13a.69.69,0,0,0-.05.13c0,.05,0,.1,0,.14a.77.77,0,0,1,0,.15v.28a.78.78,0,0,1,0,.14c0,.05,0,.1,0,.14a.78.78,0,0,0,.05.14l.06.13.07.12.09.11.09.11.11.1.11.08.13.07.13.07.13,0,.14,0,.14,0a1.41,1.41,0,0,0,.29,0l.14,0,.14,0,.13,0,.13-.07L4.22,27l.11-.08.11-.1,6.06-6.1a1,1,0,1,1,1.38,1.38L5.82,28.19l-.25.23-.27.2L5,28.79l-.3.14a3,3,0,0,1-.32.12l-.32.08-.33.05ZM18.49,13.62a1,1,0,0,1-.69-.28,1,1,0,0,1,0-1.38l.69-.69a2,2,0,0,1,1.38-.57h.9a2.75,2.75,0,0,0,.57,0,2.93,2.93,0,0,0,1.05-.44,2.56,2.56,0,0,0,.44-.36l4.7-4.7a1,1,0,0,1,1.38,1.38l-4.7,4.7a4.85,4.85,0,0,1-.74.6,4.23,4.23,0,0,1-.84.45,4.79,4.79,0,0,1-.91.28,5,5,0,0,1-.95.09h-.9l-.69.69A1,1,0,0,1,18.49,13.62Zm-1.95-1.94a1,1,0,0,1-.69-.29,1,1,0,0,1,0-1.37l.69-.69V8.42a4.29,4.29,0,0,1,.1-.94,4.86,4.86,0,0,1,.27-.92,5.67,5.67,0,0,1,.45-.84A5.33,5.33,0,0,1,18,5L22.67.29A1,1,0,0,1,24,.29a1,1,0,0,1,0,1.37l-4.7,4.7a2.89,2.89,0,0,0-.63.95,2.57,2.57,0,0,0-.16.54,2.76,2.76,0,0,0-.06.57v.91a1.85,1.85,0,0,1-.15.74,1.93,1.93,0,0,1-.42.63l-.69.69A1,1,0,0,1,16.54,11.68Zm4.38-2.44A1,1,0,0,1,20.23,9a1,1,0,0,1,0-1.38L25.1,2.72a1,1,0,0,1,1.38,0,1,1,0,0,1,0,1.37L21.61,9A1,1,0,0,1,20.92,9.24Z"/></g></g></svg>