<svg xmlns="http://www.w3.org/2000/svg" viewBox="0 0 29.19 29.19"><defs><style>.cls-1{fill:#fff;}</style></defs><g id="Capa_2" data-name="Capa 2"><g id="Capa_1-2" data-name="Capa 1"><path class="cls-1" d="M29.17,10.68a1.55,1.55,0,0,0-.07-.23,2.12,2.12,0,0,0-.11-.21.65.65,0,0,0-.15-.18L26.16,7.38a1.18,1.18,0,0,0-.37-.26,1.34,1.34,0,0,0-.44-.1,1.09,1.09,0,0,0-.44.06,1.23,1.23,0,0,0-.4.23l-.13.11-.15.09-.16.08-.16.07-.17,0-.17,0-.17,0h-.35l-.17,0-.17,0-.16-.06-.16-.08-.14-.09-.14-.11A.69.69,0,0,1,22,7.22l-.12-.13L21.76,7a1.3,1.3,0,0,1-.1-.15l-.07-.15a.58.58,0,0,1-.06-.17.84.84,0,0,1-.05-.17l0-.17s0-.11,0-.17V5.8c0-.06,0-.12,0-.18a1,1,0,0,1,0-.17,1.09,1.09,0,0,1,.05-.17,1,1,0,0,1,.06-.16A1.09,1.09,0,0,1,21.68,5l.09-.15.11-.14a1.29,1.29,0,0,0,.23-.39,1.09,1.09,0,0,0,.06-.44,1.29,1.29,0,0,0-.1-.44A1.34,1.34,0,0,0,21.82,3L19.13.35,19,.2,18.74.09,18.51,0A1.24,1.24,0,0,0,18,0l-.22.07a1,1,0,0,0-.21.11l-.19.15L13.14,4.63a2.51,2.51,0,0,0-.58,1,.36.36,0,0,1,0,.09.31.31,0,0,1-.07.09l-.08.07-.1,0a2.4,2.4,0,0,0-.94.58l-11,11-.15.19a1,1,0,0,0-.11.21A1.42,1.42,0,0,0,0,18a1.45,1.45,0,0,0,0,.48,1.87,1.87,0,0,0,.07.22A2.12,2.12,0,0,0,.2,19a1.43,1.43,0,0,0,.15.18L3,21.82a1.21,1.21,0,0,0,.37.25,1.23,1.23,0,0,0,.43.1,1.17,1.17,0,0,0,.45-.06,1.29,1.29,0,0,0,.39-.23l.14-.11L5,21.68l.16-.08.16-.07.17-.05.17,0,.17,0H6l.17,0a.47.47,0,0,1,.17,0l.17,0,.16.07.16.07.15.1.14.1.13.12a.69.69,0,0,1,.11.13.76.76,0,0,1,.11.14l.09.14.08.16.06.16,0,.17,0,.17c0,.06,0,.12,0,.18v.17a.88.88,0,0,1,0,.17l0,.17c0,.06,0,.12,0,.17a.77.77,0,0,1-.07.16.8.8,0,0,1-.08.16l-.09.15-.11.14a1.07,1.07,0,0,0-.22.39,1.31,1.31,0,0,0-.07.44,1.34,1.34,0,0,0,.1.44,1.37,1.37,0,0,0,.26.37l2.68,2.68a1.19,1.19,0,0,0,.18.15l.21.11.23.07a.93.93,0,0,0,.23,0h0a.9.9,0,0,0,.23,0l.23-.07.21-.11a1.19,1.19,0,0,0,.18-.15l11-11a2.42,2.42,0,0,0,.59-.95.36.36,0,0,1,0-.09.31.31,0,0,1,.07-.09.27.27,0,0,1,.08-.07l.1,0a2.48,2.48,0,0,0,.94-.58l4.28-4.28a.9.9,0,0,0,.15-.19,1,1,0,0,0,.11-.21,1.42,1.42,0,0,0,.07-.22,1,1,0,0,0,0-.24A.86.86,0,0,0,29.17,10.68Zm-6,4a.42.42,0,0,1-.18.11l-.11,0-.58-.58a1,1,0,0,0-1.37,0,1,1,0,0,0,0,1.38l.58.58a.49.49,0,0,0,0,.11.54.54,0,0,1-.11.18L10.92,26.94,9.19,25.22v0a3.18,3.18,0,0,0,.16-.32,2.52,2.52,0,0,0,.14-.33,3.37,3.37,0,0,0,.1-.34c0-.11.05-.23.07-.35s0-.23,0-.35,0-.24,0-.36l0-.35c0-.12,0-.24-.07-.35s-.06-.23-.09-.35-.08-.22-.13-.33l-.16-.32c-.05-.1-.12-.2-.18-.3l-.22-.29a2,2,0,0,0-.24-.26l-.26-.24A3.06,3.06,0,0,0,8,20.15a3,3,0,0,0-.3-.19,3.18,3.18,0,0,0-.32-.16l-.33-.12-.34-.1-.35-.06a2.19,2.19,0,0,0-.36,0H5.68l-.35,0A2.17,2.17,0,0,0,5,19.6a2.19,2.19,0,0,0-.34.1l-.33.13L4,20H4L2.25,18.28,12.7,7.83a.4.4,0,0,1,.19-.11l.1,0,.58.58a1,1,0,0,0,1.38,0,1,1,0,0,0,0-1.38l-.58-.58s0-.07,0-.11A.42.42,0,0,1,14.52,6l3.76-3.76L20,4V4c-.06.1-.11.21-.16.31s-.09.22-.13.33a2.19,2.19,0,0,0-.1.34,2.41,2.41,0,0,0-.07.35c0,.12,0,.24,0,.36a2,2,0,0,0,0,.35,2.19,2.19,0,0,0,0,.36c0,.12,0,.23.06.35s.06.23.1.34a3.75,3.75,0,0,0,.47,1l.21.28.24.26h0l.27.24.28.21.3.18.32.16.34.13a3.37,3.37,0,0,0,.34.09l.35.07.36,0h.35l.36,0,.34-.06.35-.11.33-.13.31-.16h0l1.72,1.72Z"/><path class="cls-1" d="M17,8.89a1,1,0,0,0-1.38,0,1,1,0,0,0,0,1.37l.67.67a1,1,0,0,0,1.38,0,1,1,0,0,0,0-1.37Z"/><path class="cls-1" d="M19.64,11.57a1,1,0,0,0-1.38,0,1,1,0,0,0,0,1.37l.67.67a1,1,0,0,0,.69.29,1,1,0,0,0,.68-.29,1,1,0,0,0,0-1.37Z"/></g></g></svg>