<svg xmlns="http://www.w3.org/2000/svg" viewBox="0 0 44.94 41.6"><defs><style>.cls-1{fill:#fff;}.cls-2{fill:#e3781d;}.cls-3{fill:#e30613;}.cls-4{fill:#1a1413;}</style></defs><g id="Capa_2" data-name="Capa 2"><g id="Capa_1-2" data-name="Capa 1"><ellipse class="cls-1" cx="29.99" cy="17.09" rx="11.03" ry="11.79"/><path class="cls-2" d="M12.72,12.15l10.76.69s-1.74-5.26.31-7.93,1.74-3.54,1.74-3.54S15.59-.15,8.3,2.76C8.3,2.76,13,9.46,12.72,12.15Z"/><path class="cls-2" d="M4.35,13.6s1,3.16,6.37,4.16a32.86,32.86,0,0,0,11.39-.35s2.83-2.32,1.14-3.81-9.84-1.45-9.84-1.45Z"/><path class="cls-3" d="M15.88,18.08l3-.23s.19,5.29,3.19,7.75,5.61,4,9.3,2.91,7.84-2.41,8.52-8.11.41-9.34-4.24-13.17-11.07-1.5-11.07-1.5.23-2.28.82-2.92A7.08,7.08,0,0,0,26.45,1a12.06,12.06,0,0,1,9.48,1.42c4.87,3,8.25,6.33,8.29,10.75S42.63,25,40.07,27.69s-10,10.76-10.31,10.85c0,0-2.12-1.18-2.3-1.25s-4.77-5.37-5.52-6.42a39.43,39.43,0,0,1-3.43-4.66c-.74-1.5-3-5.84-3-6.16S15.88,18.08,15.88,18.08Z"/><path class="cls-4" d="M26.69,9.63a2.93,2.93,0,1,1,2.93,2.92A2.93,2.93,0,0,1,26.69,9.63Z"/><path class="cls-4" d="M25.66,36.85c1,1.11,1.94,2,2.57,2.57a2.18,2.18,0,0,0,1.51.63,2.31,2.31,0,0,0,1.61-.68c.62-.58,1.49-1.44,2.51-2.52,2.17.46,3.62,1.26,3.62,2.18,0,1.42-3.46,2.57-7.72,2.57S22.05,40.45,22.05,39C22.05,38.11,23.49,37.31,25.66,36.85Z"/><path class="cls-3" d="M43.19,8.13A15.54,15.54,0,0,0,25.4.51,36.82,36.82,0,0,0,19.68.09a32.58,32.58,0,0,0-9,1.18C4,3.27.66,7.85.14,11.42s.46,4.11,3.67,2.82c0,0,1.29,2.94,6.38,3.9l1.61.24c.43,0,.88.06,1.35.07s1,0,1.45,0a28.73,28.73,0,0,0,4.1,9.23c.41.65.89,1.31,1.37,2l1.87,2.42.15.17A78.32,78.32,0,0,0,28.39,39a1.74,1.74,0,0,0,2.4,0c1.27-1.19,3.36-3.2,5-5.12,0,0,.63-.67,1.56-1.8l1.86-2.42a37,37,0,0,0,4.37-7.78,17.67,17.67,0,0,0,1.3-5.54l0-1.76A16.64,16.64,0,0,0,43.19,8.13ZM42,22a35,35,0,0,1-5.06,8.25,61.47,61.47,0,0,1-7,7.59.45.45,0,0,1-.61,0A61.81,61.81,0,0,1,24,32.29a43.46,43.46,0,0,1-6.1-9,22.32,22.32,0,0,1-1.76-4.83h2c.73,6.37,5.57,11.3,11.42,11.3,6.36,0,11.52-5.8,11.52-13s-5.16-13-11.52-13A10.32,10.32,0,0,0,25,4.9c.53-.92,1.07-1.75,1.36-2.17a2.21,2.21,0,0,0,.36-.95,11.48,11.48,0,0,1,4.42-.23,13.74,13.74,0,0,1,7.31,3.16,13.56,13.56,0,0,1,4.87,8.42A16.28,16.28,0,0,1,42,22ZM24,13.14c-.13-.58-.86-3.6-.23-5.58l0-.1A9.08,9.08,0,0,1,29.63,5.3c5.55,0,10.06,5.14,10.06,11.5S35.18,28.32,29.63,28.32c-5.09,0-9.28-4.3-10-9.9,2.13-.17,2.94-.58,3.67-1.43A4.32,4.32,0,0,0,24,13.14ZM25.21,1.86a14.58,14.58,0,0,0-2.6,4.63,6.76,6.76,0,0,0-.2,1.15c-.05.43-.05.84-.06,1.22v.26a16.3,16.3,0,0,0,.29,3.22s-.8-.2-2.13-.41c-.44-.07-1-.14-1.5-.2a37.34,37.34,0,0,0-5.78-.19c0-.09,0-4.22-4.24-8.21C9,3.33,14.66.19,25.21,1.86ZM2.62,13.39c-.88.64-1.27.44-1.45.15a.84.84,0,0,1-.08-.6C2.52,6.07,7.52,4,7.52,4c3.85,2.32,4.42,7.66,4.42,7.66C9.16,11.58,4.09,12.34,2.62,13.39Zm12.19,4c-.92,0-1.68-.06-2.13-.1h-.39l-1.54-.14a7.52,7.52,0,0,1-5.54-3.31,36.53,36.53,0,0,1,6.73-1h1.25s2.67,0,5.4.24c.48.05,1,.11,1.47.18a14.15,14.15,0,0,1,2.93.67,2.48,2.48,0,0,1-2.19,3.19,7.36,7.36,0,0,1-1.22.16c-.47,0-1,.09-1.48.11-.93,0-1.91,0-2.77,0C15.14,17.39,15,17.39,14.81,17.37Z"/><path class="cls-3" d="M1.5,14.74l2.55-1.1s5.61-.79,5.79-.69A12.26,12.26,0,0,0,12,12.46a1.58,1.58,0,0,0,.33-1.19c0-.86-1.88-7.42-5.16-7.65S.64,12.55.64,12.55Z"/></g></g></svg>