<svg id="Capa_1" data-name="Capa 1" xmlns="http://www.w3.org/2000/svg" viewBox="0 0 41.23 41.23"><defs><style>.cls-1{fill:#ee7627;}.cls-2{fill:#fff;}</style></defs><circle class="cls-1" cx="20.62" cy="20.62" r="20.62"/><path class="cls-2" d="M420.67,309.08a6.75,6.75,0,0,1,3.58,1c.31.19.63.36,1,.54l.16.08a5.51,5.51,0,0,0,2,.77,3.44,3.44,0,0,0,2.58-.84,3.79,3.79,0,0,0,1.26-2.62c0-.17-.05-.33-.08-.5a9.3,9.3,0,0,0-.2-1.14,3.92,3.92,0,0,0-2.59-3.05,3.44,3.44,0,0,1-2.28-2.25,7.73,7.73,0,0,0-.33-.77c-.1-.18-.19-.37-.28-.55a12.89,12.89,0,0,0-.8-1.48,2.31,2.31,0,0,0-2.2-1.15,6.1,6.1,0,0,0-4.77,2.78,11.36,11.36,0,0,0-.63,1.1c-.12.25-.25.5-.39.74a4.25,4.25,0,0,1-2.2,1.91l-.43.17-.75.3a2.68,2.68,0,0,0-1.22.81,3.22,3.22,0,0,0-.31,3.26,2.66,2.66,0,0,0,1.83,1.84,3.81,3.81,0,0,0,1.8.08c1-.19,2-.44,3.24-.77A7.76,7.76,0,0,1,420.67,309.08Zm9.16-11.27a4.4,4.4,0,0,0,1,2.58,1.36,1.36,0,0,0,2.25.12,6.89,6.89,0,0,0,1.82-3.71,3.52,3.52,0,0,0-.34-2.55,1,1,0,0,0-1.49-.44l-.06,0-.15.09-.62.48c-.57.46-1.11.89-1.63,1.36A2.49,2.49,0,0,0,429.83,297.81Zm-2.25-12.09a1.55,1.55,0,0,0-.92.34,4.18,4.18,0,0,0-1,1,7.77,7.77,0,0,0-1.38,4.3,2.21,2.21,0,0,0,1.3,2.28,2.81,2.81,0,0,0,2.14.15,2.34,2.34,0,0,0,1.36-1.3,6.36,6.36,0,0,0,.6-2.68l0-.39c0-.3,0-.59-.07-.89a4.29,4.29,0,0,0-.75-2.1A1.57,1.57,0,0,0,427.58,285.72Zm-9.36-.07a1.38,1.38,0,0,0-.9.36,2.79,2.79,0,0,0-.94,1.39,17.08,17.08,0,0,0-.47,2.53,4.8,4.8,0,0,0,.34,2.34,2.37,2.37,0,0,0,2.65,1.63,2.25,2.25,0,0,0,2.18-1.94,4.85,4.85,0,0,0,.07-.63c0-.06,0-.12,0-.17a9.29,9.29,0,0,0-.87-3.77,3.69,3.69,0,0,0-1.19-1.43A1.55,1.55,0,0,0,418.22,285.65Zm-8.14,7.44h0c-.11,0-.32,0-.66.58a3.31,3.31,0,0,0-.41,2.19,6.89,6.89,0,0,0,1.75,4,1.57,1.57,0,0,0,1.19.63,1.7,1.7,0,0,0,1.19-.7,4.5,4.5,0,0,0,1-2.75,2.16,2.16,0,0,0-.46-1.45,10.05,10.05,0,0,0-2.77-2.34A1.7,1.7,0,0,0,410.08,293.09Z" transform="translate(-401.35 -277.96)"/></svg>