<svg xmlns="http://www.w3.org/2000/svg" viewBox="0 0 35.46 52"><defs><style>.cls-1{fill:#422918;}.cls-2{fill:#e6752c;}.cls-3{fill:#fccf8a;}.cls-4{fill:#e9a61e;}</style></defs><g id="Capa_2" data-name="Capa 2"><g id="Capa_1-2" data-name="Capa 1"><path class="cls-1" d="M19.28,48.94h0l.33-.57Z"/><path class="cls-2" d="M20.75,29.15a.1.1,0,0,1,0,.05l0,0h0a.73.73,0,0,0-.09.08h0l-1.74,1.75c-.23.22-.46.45-.68.68a.81.81,0,0,1-.2.14.35.35,0,0,1-.2,0h-.08l0,0,0,0-.09-.08c-.23-.23-.45-.46-.69-.68l-1.73-1.75h0a.6.6,0,0,0-.08-.08l0,0,0-.06c0-.12-.14-.29-.09-.38h0a.51.51,0,0,1,.35-.15c1.75,0,3.5,0,5.26,0a.52.52,0,0,1,.34.14l0,0C20.88,28.86,20.8,29,20.75,29.15Z"/><path class="cls-3" d="M22.22,36.47a2.42,2.42,0,0,1-1.87,2.13,3.34,3.34,0,0,1-.7.08c-1.22,0-2.44,0-3.66,0a2.53,2.53,0,0,1-2.48-2,1.22,1.22,0,0,1,0-.26c1.61-.15,3.21-.28,4.38-1.6C19.06,36.18,20.64,36.31,22.22,36.47Z"/><path class="cls-4" d="M10,4,8,5.25C7.38,4.83,6.79,4.37,6.15,4a6.73,6.73,0,0,0-4-1.23A8.62,8.62,0,0,0,.86,3,2,2,0,0,1,3,.85a8,8,0,0,1,2.33.45A14.64,14.64,0,0,1,10,4Z"/><path class="cls-3" d="M6.86,6c-1.07,1.17-2.1,2.32-3.17,3.5a15.21,15.21,0,0,1-1-1.5c-.52-.94-1-1.9-1.43-2.88a.66.66,0,0,1,.45-1A3.2,3.2,0,0,1,3,4.07,9.09,9.09,0,0,1,6.86,6Z"/><path class="cls-4" d="M34.84,3a8.49,8.49,0,0,0-1.31-.28,6.71,6.71,0,0,0-4,1.23c-.64.38-1.23.84-1.85,1.26L25.75,4A14.53,14.53,0,0,1,30.36,1.3,8,8,0,0,1,32.68.85,2,2,0,0,1,34.84,3Z"/><path class="cls-3" d="M34.48,5.13c-.45,1-.92,1.94-1.43,2.88a17.16,17.16,0,0,1-1,1.5L28.85,6a9.09,9.09,0,0,1,3.84-1.94A3.15,3.15,0,0,1,34,4.15.66.66,0,0,1,34.48,5.13Z"/><path class="cls-4" d="M33.61,19.05a13.86,13.86,0,0,0-.08-1.43,16,16,0,0,0-4.1-9.17,15.5,15.5,0,0,0-1.37-1.32L27.92,7l-.14-.12-.15-.12-.15-.12c-.23-.18-.46-.34-.7-.51l-.1-.07-.2-.13-.22-.14L26,5.66h0l-.21-.12-.06,0-.18-.1-.09,0-.16-.09-.1,0-.15-.08L25,5.06,24.81,5l-.15-.07-.11,0L24.4,4.8l-.12-.06-.16-.07L24,4.61l-.13-.05-.13-.06-.14,0-.18-.07-.09,0-.23-.08-.28-.1-.25-.08-.07,0L22.25,4,22,3.94l-.13,0-.25-.06-.26-.07-.26,0-.13,0-.26,0-.26-.05-.22,0h-.05l-.16,0-.24,0-.22,0h0l-.22,0h-.13l-.2,0h-.08l-.27,0H17l-.28,0h-.07l-.2,0h-.14l-.19,0h0l-.21,0-.25,0-.15,0h-.05l-.21,0h-.05l-.21,0-.1,0-.16,0-.14,0-.26,0-.24.06-.28.07-.12,0L13.45,4l-.23.07-.07,0-.26.08-.28.1-.22.08-.09,0-.18.07L12,4.5l-.13.06-.13.05-.14.06-.16.07-.12.06-.18.08-.06,0-.2.1-.1,0-.17.08-.09.05-.14.08-.14.07L10,5.48l-.14.08-.24.15-.15.09-.22.14L9,6.07c-.27.19-.54.38-.8.58l-.15.12-.15.12L7.77,7l-.14.12A16,16,0,0,0,2.17,17.62c0,.48-.08,1-.09,1.43v.21a16.14,16.14,0,0,0,.56,4.13v.06c0,.05,0,.1.05.15a15.88,15.88,0,0,0,.84,2.23A15.51,15.51,0,0,0,8,31.54q.43.33.87.63c0-.23,0-.46,0-.7h0a16.76,16.76,0,0,1,.87-3.15h0L9.87,28a.3.3,0,0,1,.54.09h1.47l1.85,0c0-.09.1-.16.15-.24l0,0,0,0a1.25,1.25,0,0,1,.23-.23l.08-.06,0,0,.05,0,.15-.07.07,0,.08,0h.07l.08,0h5.87a1.37,1.37,0,0,1,1.12.52h0a1.13,1.13,0,0,1,.21.35l1.68,0h1.47a.29.29,0,0,1,.56-.14c.23.55.48,1.19.69,1.83a10,10,0,0,1,.43,1.77c0,.14,0,.29,0,.43h0c.29-.2.58-.4.86-.62a15.65,15.65,0,0,0,4.44-5.72A15.88,15.88,0,0,0,33,23.6a.83.83,0,0,0,0-.15s0,0,0-.06a16.14,16.14,0,0,0,.56-4.13A1.48,1.48,0,0,0,33.61,19.05Zm-22,6.56s-.31.19,0-.45a28,28,0,0,0,1.6-5.68s.39-.26.56,1.31S11.61,25.61,11.61,25.61Zm12.48,0s-2.44-3.17-2.33-4.74.51-1.32.51-1.32a27.65,27.65,0,0,0,1.81,5.61C24.4,25.75,24.09,25.57,24.09,25.57Z"/><path class="cls-4" d="M11.61,25.61s-.31.19,0-.45a28,28,0,0,0,1.6-5.68s.39-.26.56,1.31S11.61,25.61,11.61,25.61Z"/><path class="cls-4" d="M24.09,25.57s-2.44-3.17-2.33-4.74.51-1.32.51-1.32a27.65,27.65,0,0,0,1.81,5.61C24.4,25.75,24.09,25.57,24.09,25.57Z"/><path class="cls-3" d="M17.2,33.29v.1a2.29,2.29,0,0,1-.08.28,2.19,2.19,0,0,1-.11.19,1.82,1.82,0,0,1-.68.72c-.25.11-.49.22-.74.31l-.15,0a4.16,4.16,0,0,1-2.45.15,3.77,3.77,0,0,1-1.76-1h0a.43.43,0,0,1-.09-.1l-.06,0,0,0-.11-.13a.18.18,0,0,1,0-.07l-.09-.12a2.92,2.92,0,0,1-.29-.48s0-.11-.08-.17a.36.36,0,0,0,0-.09h0a3.86,3.86,0,0,1-.26-2.2c.14-.9.24-1.78.28-2.46v-.09h1.47l1.85,0a2.49,2.49,0,0,0-.11.29.19.19,0,0,0,0,.07,1.34,1.34,0,0,0,.22,1.25,1.53,1.53,0,0,0,.4.44c.85.88,1.72,1.74,2.6,2.59C17,33,17.17,33.14,17.2,33.29Z"/><path class="cls-3" d="M24.9,33.6l-.09.12,0,.07-.11.13,0,0-.05,0-.09.1a3.82,3.82,0,0,1-1.76,1,4.2,4.2,0,0,1-2.46-.15L20,34.86c-.22-.08-.44-.18-.66-.28a1.82,1.82,0,0,1-.68-.72,2.19,2.19,0,0,1-.11-.19,2.29,2.29,0,0,1-.08-.28.33.33,0,0,1,0-.1c0-.15.16-.28.38-.5.87-.85,1.74-1.71,2.59-2.59a1.43,1.43,0,0,0,.41-.44,1.34,1.34,0,0,0,.22-1.25.19.19,0,0,0,0-.07,1.8,1.8,0,0,0-.08-.21l1.68,0h1.47c.05.53.12,1.18.23,1.88h0a4.84,4.84,0,0,1,.14.51.17.17,0,0,1,0,.07A3.79,3.79,0,0,1,24.9,33.6Z"/><path class="cls-1" d="M22.87,16.63a2.79,2.79,0,1,0,4.46-2.94l-4.45,3Z"/><path class="cls-1" d="M13.24,16.63a2.78,2.78,0,1,1-4.46-2.94l4.45,3Z"/><path class="cls-1" d="M11.61,25.61s-.31.19,0-.45a28,28,0,0,0,1.6-5.68s.39-.26.56,1.31S11.61,25.61,11.61,25.61Z"/><path class="cls-1" d="M24.09,25.57s-2.44-3.17-2.33-4.74.51-1.32.51-1.32a27.65,27.65,0,0,0,1.81,5.61C24.4,25.75,24.09,25.57,24.09,25.57Z"/><path class="cls-1" d="M13.06,12s-.82-.67.26-1.26,1.12.77,2.41,1.15S17.48,13.4,17,14s-3,.52-3.49-.33C13.38,13.4,13.69,12.1,13.06,12Z"/><path class="cls-1" d="M23.68,12s.82-.67-.25-1.26-1.13.77-2.42,1.15S19.26,13.4,19.7,14s3,.52,3.49-.33C23.37,13.4,23.05,12.1,23.68,12Z"/><path class="cls-1" d="M9.55,9.57s.37.83.92.68,1-.24,1.06-1,1.17-2.16.23-2.44-1,.3-2.17.75-1.69.17-2,.87.33,1.78,1.1,1.27S9.55,9.57,9.55,9.57Z"/><path class="cls-1" d="M26.65,10.1s-.36.83-.92.68-1-.24-1.06-1-1.16-2.16-.22-2.44,1,.3,2.17.75,1.69.17,2,.87-.34,1.78-1.11,1.27S26.65,10.1,26.65,10.1Z"/><path class="cls-1" d="M20.33,6.5a1.3,1.3,0,0,1,.44,1.23c-.08.42-.38.81-1.21.65-1.67-.32-3.81-.67-4.12-1.47S17.72,4,18.72,5C19.33,5.61,19.94,6.16,20.33,6.5Z"/><path class="cls-1" d="M29.19,21.06a.56.56,0,0,0-.9,0,.89.89,0,0,0-.14,1.05c.42.7,1.53-.22,1.13-.89Z"/><path class="cls-1" d="M27.56,27.34a2.42,2.42,0,0,0-.32,2c.43.88,2.39-.15,2.29-1.05s-.16-.64-.68-.89A2.41,2.41,0,0,0,27.56,27.34Z"/><path class="cls-1" d="M26.16,20.25s-2.36.71-2,1.42,1,.64,1.7.13S26.53,20.4,26.16,20.25Z"/><path class="cls-1" d="M29.45,12.68s.25,1.87,1.41,2.38,1.06-1.26.34-1.63S29.76,12.15,29.45,12.68Z"/><path class="cls-1" d="M31.69,20.36a.81.81,0,0,0-.7.6c-.18.67-.37,1.76.23,1.86.89.16,1.83-.33,1.82-1s-.13-1.56-.92-1.47Z"/><path class="cls-1" d="M29.84,18.36s.67-1.12,1.26-1.05,1.08-.16,1.27.18.27,1-.39,1.08S30.41,19,29.84,18.36Z"/><path class="cls-1" d="M25.5,25.63s-.44-1.62-.06-1.74,1.4.34,1.23.67S26.05,25.69,25.5,25.63Z"/><path class="cls-1" d="M28.94,24.89s0,.48.66.54,1.36-.26,1.11-.79-.21-.7-.62-.84-.78-.32-.89-.09A7,7,0,0,0,28.94,24.89Z"/><path class="cls-1" d="M6.43,21.06a.56.56,0,0,1,.9,0,.9.9,0,0,1,.15,1.05c-.42.7-1.53-.22-1.14-.89C6.38,21.15,6.4,21.1,6.43,21.06Z"/><path class="cls-1" d="M8.07,27.34a2.42,2.42,0,0,1,.32,2C8,30.25,6,29.22,6.1,28.32s.16-.64.68-.89A2.41,2.41,0,0,1,8.07,27.34Z"/><path class="cls-1" d="M9.47,20.25s2.36.71,1.95,1.42-1,.64-1.7.13S9.1,20.4,9.47,20.25Z"/><path class="cls-1" d="M6.17,12.68s-.24,1.87-1.41,2.38S3.7,13.8,4.43,13.43,5.87,12.15,6.17,12.68Z"/><path class="cls-1" d="M3.94,20.36a.82.82,0,0,1,.7.6c.18.67.37,1.76-.24,1.86-.89.16-1.82-.33-1.82-1s.13-1.56.93-1.47Z"/><path class="cls-1" d="M5.78,18.36s-.66-1.12-1.25-1.05-1.09-.16-1.27.18-.27,1,.39,1.08S5.21,19,5.78,18.36Z"/><path class="cls-1" d="M10.12,25.63s.44-1.62.07-1.74-1.41.34-1.24.67S9.57,25.69,10.12,25.63Z"/><path class="cls-1" d="M6.69,24.89s0,.48-.66.54-1.36-.26-1.11-.79.21-.7.62-.84.78-.32.89-.09A8.21,8.21,0,0,1,6.69,24.89Z"/><path class="cls-1" d="M32.35,10.65C33.14,9.46,36.78,3.9,35,1.2S26.72,1.11,24.8,3.86a16.49,16.49,0,0,0-9.64-1.29,17.45,17.45,0,0,0-4.33,1.32C9,1.14,2.31-1.62.44,1.37c-1.71,2.73,2,8.06,2.91,9.31A16.7,16.7,0,0,0,3.3,27.6c4.14,7.2,8.3,13,12.45,20.16l.3.51.38.67h0a1.64,1.64,0,0,0,2.84,0h0l.33-.57,0,0C23.85,41,28.06,35.11,32.29,27.8a16.82,16.82,0,0,0,2.2-11A16.52,16.52,0,0,0,32.35,10.65Zm2.13-5.51c-.45,1-.92,1.93-1.43,2.87a17.16,17.16,0,0,1-1,1.5L28.85,6a9.09,9.09,0,0,1,3.84-1.94A3.15,3.15,0,0,1,34,4.15.66.66,0,0,1,34.48,5.14ZM30.36,1.3A8.37,8.37,0,0,1,32.68.85,2,2,0,0,1,34.84,3a8.49,8.49,0,0,0-1.31-.28,6.71,6.71,0,0,0-4,1.23c-.64.38-1.23.84-1.85,1.26L25.75,4A14.83,14.83,0,0,1,30.36,1.3ZM3,.85a8.37,8.37,0,0,1,2.32.45A14.83,14.83,0,0,1,10,4L8,5.25C7.38,4.83,6.79,4.37,6.15,4a6.73,6.73,0,0,0-4-1.23A8.88,8.88,0,0,0,.86,3,2,2,0,0,1,3,.85ZM2.66,8c-.52-.94-1-1.9-1.43-2.87a.67.67,0,0,1,.45-1A3.2,3.2,0,0,1,3,4.07,9.09,9.09,0,0,1,6.86,6L3.69,9.51A17.16,17.16,0,0,1,2.66,8ZM20.35,38.6a3.34,3.34,0,0,1-.7.08c-1.22,0-2.44,0-3.66,0a2.54,2.54,0,0,1-2.48-2,2.6,2.6,0,0,1,0-.26c1.61-.15,3.21-.27,4.38-1.6,1.2,1.31,2.78,1.44,4.36,1.6A2.42,2.42,0,0,1,20.35,38.6Zm-2.82-6.84c-.23-.23-.45-.46-.69-.68l-1.73-1.75h0L15,29.24l0,0L15,29.15c0-.12-.13-.29-.09-.38h0a.51.51,0,0,1,.35-.15c1.75,0,3.5,0,5.26,0a.52.52,0,0,1,.34.14l0,0c0,.09,0,.26-.09.38a.1.1,0,0,1,0,.05l0,0h0a.73.73,0,0,0-.09.08h0l-1.74,1.75c-.23.22-.46.45-.68.68a.61.61,0,0,1-.2.14.34.34,0,0,1-.2,0h-.08l0,0,0,0Zm15.53-8.37s0,0,0,.06a.83.83,0,0,1,0,.15,15.88,15.88,0,0,1-.84,2.23,15.65,15.65,0,0,1-4.44,5.72c-.28.22-.57.42-.86.62h0c0-.14,0-.29,0-.43A10,10,0,0,0,26.4,30c-.21-.64-.46-1.28-.69-1.83a.29.29,0,0,0-.56.14c.05.53.12,1.18.23,1.88h0a4.84,4.84,0,0,1,.14.51.17.17,0,0,1,0,.07,3.79,3.79,0,0,1-.63,2.87l-.09.12,0,.07-.11.13,0,0-.05,0-.09.1a3.82,3.82,0,0,1-1.76,1,4.2,4.2,0,0,1-2.46-.15L20,34.86c-.22-.08-.44-.18-.66-.28a1.82,1.82,0,0,1-.68-.72,2.19,2.19,0,0,1-.11-.19,2.29,2.29,0,0,1-.08-.28.33.33,0,0,1,0-.1c0-.15.16-.28.38-.5.87-.85,1.74-1.71,2.59-2.59a1.43,1.43,0,0,0,.41-.44,1.34,1.34,0,0,0,.22-1.25.19.19,0,0,0,0-.07,1.8,1.8,0,0,0-.08-.21,1.13,1.13,0,0,0-.21-.35h0a1.37,1.37,0,0,0-1.12-.52H14.79l-.08,0h-.07l-.08,0-.07,0-.15.07-.05,0,0,0-.08.06a1.25,1.25,0,0,0-.23.23l0,0,0,0c-.05.08-.1.15-.15.24a2.49,2.49,0,0,0-.11.29.19.19,0,0,0,0,.07,1.34,1.34,0,0,0,.22,1.25,1.53,1.53,0,0,0,.4.44c.85.88,1.72,1.74,2.6,2.59.22.22.35.35.38.5v.1a2.29,2.29,0,0,1-.08.28,2.19,2.19,0,0,1-.11.19,1.82,1.82,0,0,1-.68.72c-.25.11-.49.22-.74.31l-.15,0a4.16,4.16,0,0,1-2.45.15,3.77,3.77,0,0,1-1.76-1h0a3,3,0,0,1-.72-1s0-.11-.08-.17a.36.36,0,0,0,0-.09h0a3.86,3.86,0,0,1-.26-2.2c.14-.9.24-1.78.28-2.46v-.09A.3.3,0,0,0,9.87,28l-.12.29h0a16.76,16.76,0,0,0-.87,3.15h0c0,.24,0,.47,0,.7q-.43-.3-.87-.63a15.51,15.51,0,0,1-4.43-5.71A15.88,15.88,0,0,1,2.7,23.6c0-.05,0-.1-.05-.15v-.06a16.14,16.14,0,0,1-.56-4.13v-.21c0-.47,0-.95.09-1.43A16,16,0,0,1,7.63,7.13L7.77,7l.15-.12.15-.12.15-.12c.26-.2.53-.39.8-.58l.2-.13.22-.14.15-.09.24-.15L10,5.48l.25-.14.14-.07.14-.08.09-.05.17-.08.1,0,.2-.1.06,0,.18-.08.12-.06.16-.07.14-.06.13-.05L12,4.5l.14,0,.18-.07.09,0,.22-.08.28-.1.26-.08.07,0L13.45,4l.22-.06.12,0,.28-.07.24-.06.26,0,.14,0,.16,0,.1,0,.21,0h.05l.21,0h.05l.15,0,.25,0,.21,0h0l.19,0h.14l.2,0h.07l.28,0h1.64l.27,0H19l.2,0h.13l.22,0h0l.22,0,.24,0,.16,0h.05l.22,0,.26.05.26,0,.13,0,.26,0,.26.07.25.06.13,0,.22.06.23.07.07,0,.25.08.28.1.23.08.09,0,.18.07.14,0,.13.06.13.05.14.06.16.07.12.06.15.07.11,0,.15.07.14.07.12.06.15.08.1,0,.16.09.09,0,.18.1.06,0,.21.12h0l.22.14.22.14.2.13.1.07c.24.17.47.33.7.51l.15.12.15.12.14.12.14.12a15.5,15.5,0,0,1,1.37,1.32,16,16,0,0,1,4.1,9.17,13.86,13.86,0,0,1,.08,1.43,1.48,1.48,0,0,1,0,.21A16.14,16.14,0,0,1,33.06,23.39Z"/><path class="cls-1" d="M21.08,47.23,19.61,49.7s-.26,1.06-1.85,1.06-1.84-1.06-1.84-1.06l-1.46-2.48c-2.78.39-4.73,1.26-4.73,2.28,0,1.38,3.58,2.5,8,2.5s8-1.12,8-2.5C25.73,48.49,23.82,47.63,21.08,47.23Z"/></g></g></svg>